<mxfile host="Electron" modified="2025-06-18T08:15:51.799Z" agent="Mozilla/5.0 (Macintosh; Intel Mac OS X 10_15_7) AppleWebKit/537.36 (KHTML, like Gecko) draw.io/24.6.4 Chrome/124.0.6367.207 Electron/30.0.6 Safari/537.36" etag="JCHnQVM4-Gl5brFhHP8z" version="24.6.4" type="device">
  <diagram name="Seite-1" id="04WMFu2XbxAi0Gb0O8UC">
    <mxGraphModel dx="2270" dy="2281" grid="1" gridSize="10" guides="1" tooltips="1" connect="1" arrows="1" fold="1" page="1" pageScale="1" pageWidth="827" pageHeight="1169" math="0" shadow="0">
      <root>
        <mxCell id="0" />
        <mxCell id="1" parent="0" />
        <mxCell id="q8OtwesBFGutgxQmco77-1" value="DEV" style="shape=umlActor;verticalLabelPosition=bottom;verticalAlign=top;html=1;outlineConnect=0;" vertex="1" parent="1">
          <mxGeometry x="-60" y="150" width="30" height="60" as="geometry" />
        </mxCell>
        <mxCell id="q8OtwesBFGutgxQmco77-43" style="edgeStyle=orthogonalEdgeStyle;rounded=0;orthogonalLoop=1;jettySize=auto;html=1;entryX=0.5;entryY=0;entryDx=0;entryDy=0;" edge="1" parent="1" source="q8OtwesBFGutgxQmco77-2" target="q8OtwesBFGutgxQmco77-35">
          <mxGeometry relative="1" as="geometry" />
        </mxCell>
        <mxCell id="q8OtwesBFGutgxQmco77-2" value="OPS" style="shape=umlActor;verticalLabelPosition=bottom;verticalAlign=top;html=1;outlineConnect=0;" vertex="1" parent="1">
          <mxGeometry x="870" y="130" width="30" height="60" as="geometry" />
        </mxCell>
        <mxCell id="q8OtwesBFGutgxQmco77-3" value="" style="verticalLabelPosition=bottom;sketch=0;aspect=fixed;html=1;verticalAlign=top;strokeColor=none;align=center;outlineConnect=0;shape=mxgraph.citrix.laptop_2;" vertex="1" parent="1">
          <mxGeometry x="-20" y="260" width="116" height="86.5" as="geometry" />
        </mxCell>
        <mxCell id="q8OtwesBFGutgxQmco77-5" value="QuellCode&lt;div&gt;&amp;lt; / &amp;gt;&lt;/div&gt;" style="shape=note;whiteSpace=wrap;html=1;backgroundOutline=1;darkOpacity=0.05;" vertex="1" parent="1">
          <mxGeometry x="-270" y="45" width="80" height="100" as="geometry" />
        </mxCell>
        <mxCell id="q8OtwesBFGutgxQmco77-6" value="QuellCode&lt;div&gt;&amp;lt; / &amp;gt;&lt;/div&gt;" style="shape=note;whiteSpace=wrap;html=1;backgroundOutline=1;darkOpacity=0.05;" vertex="1" parent="1">
          <mxGeometry x="-260" y="55" width="80" height="100" as="geometry" />
        </mxCell>
        <mxCell id="q8OtwesBFGutgxQmco77-7" value="QuellCode&lt;div&gt;&amp;lt; / &amp;gt;&lt;/div&gt;" style="shape=note;whiteSpace=wrap;html=1;backgroundOutline=1;darkOpacity=0.05;" vertex="1" parent="1">
          <mxGeometry x="-250" y="65" width="80" height="100" as="geometry" />
        </mxCell>
        <mxCell id="q8OtwesBFGutgxQmco77-9" value="v 0.0.1&lt;div&gt;&lt;/div&gt;" style="shape=cylinder3;whiteSpace=wrap;html=1;boundedLbl=1;backgroundOutline=1;size=15;" vertex="1" parent="1">
          <mxGeometry x="-128" y="505" width="60" height="80" as="geometry" />
        </mxCell>
        <mxCell id="q8OtwesBFGutgxQmco77-10" value="v 1.1.1&lt;div&gt;&lt;/div&gt;" style="shape=cylinder3;whiteSpace=wrap;html=1;boundedLbl=1;backgroundOutline=1;size=15;" vertex="1" parent="1">
          <mxGeometry x="-128" y="445" width="60" height="80" as="geometry" />
        </mxCell>
        <mxCell id="q8OtwesBFGutgxQmco77-11" value="v 1.1.2&lt;div&gt;&lt;/div&gt;" style="shape=cylinder3;whiteSpace=wrap;html=1;boundedLbl=1;backgroundOutline=1;size=15;" vertex="1" parent="1">
          <mxGeometry x="-128" y="380" width="60" height="80" as="geometry" />
        </mxCell>
        <mxCell id="q8OtwesBFGutgxQmco77-12" value="v 1.1.3&lt;div&gt;&lt;/div&gt;" style="shape=cylinder3;whiteSpace=wrap;html=1;boundedLbl=1;backgroundOutline=1;size=15;" vertex="1" parent="1">
          <mxGeometry x="-128" y="315" width="60" height="80" as="geometry" />
        </mxCell>
        <mxCell id="q8OtwesBFGutgxQmco77-13" value="v 1.1.4&lt;div&gt;&lt;/div&gt;" style="shape=cylinder3;whiteSpace=wrap;html=1;boundedLbl=1;backgroundOutline=1;size=15;" vertex="1" parent="1">
          <mxGeometry x="-128" y="255" width="60" height="80" as="geometry" />
        </mxCell>
        <mxCell id="q8OtwesBFGutgxQmco77-14" style="edgeStyle=orthogonalEdgeStyle;rounded=0;orthogonalLoop=1;jettySize=auto;html=1;entryX=0.033;entryY=0.588;entryDx=0;entryDy=0;entryPerimeter=0;" edge="1" parent="1" source="q8OtwesBFGutgxQmco77-7" target="q8OtwesBFGutgxQmco77-13">
          <mxGeometry relative="1" as="geometry">
            <Array as="points">
              <mxPoint x="-148" y="115" />
              <mxPoint x="-148" y="302" />
            </Array>
          </mxGeometry>
        </mxCell>
        <mxCell id="q8OtwesBFGutgxQmco77-15" value="REPO&amp;nbsp;&lt;div&gt;(remote)&lt;/div&gt;" style="shape=cylinder3;whiteSpace=wrap;html=1;boundedLbl=1;backgroundOutline=1;size=15;" vertex="1" parent="1">
          <mxGeometry x="50" y="740" width="60" height="80" as="geometry" />
        </mxCell>
        <mxCell id="q8OtwesBFGutgxQmco77-16" value="" style="endArrow=none;html=1;rounded=0;" edge="1" parent="1">
          <mxGeometry width="50" height="50" relative="1" as="geometry">
            <mxPoint x="-160" y="610" as="sourcePoint" />
            <mxPoint x="720" y="410" as="targetPoint" />
          </mxGeometry>
        </mxCell>
        <mxCell id="q8OtwesBFGutgxQmco77-17" value="" style="shape=flexArrow;endArrow=classic;html=1;rounded=0;entryX=0.4;entryY=0;entryDx=0;entryDy=0;entryPerimeter=0;" edge="1" parent="1" source="q8OtwesBFGutgxQmco77-3" target="q8OtwesBFGutgxQmco77-15">
          <mxGeometry width="50" height="50" relative="1" as="geometry">
            <mxPoint x="360" y="440" as="sourcePoint" />
            <mxPoint x="410" y="390" as="targetPoint" />
          </mxGeometry>
        </mxCell>
        <mxCell id="q8OtwesBFGutgxQmco77-18" value="GIT PUSH" style="edgeLabel;html=1;align=center;verticalAlign=middle;resizable=0;points=[];" vertex="1" connectable="0" parent="q8OtwesBFGutgxQmco77-17">
          <mxGeometry x="-0.1745" y="-1" relative="1" as="geometry">
            <mxPoint as="offset" />
          </mxGeometry>
        </mxCell>
        <mxCell id="q8OtwesBFGutgxQmco77-20" value="QuellCode&lt;div&gt;&amp;lt; / &amp;gt;&lt;/div&gt;" style="shape=note;whiteSpace=wrap;html=1;backgroundOutline=1;darkOpacity=0.05;" vertex="1" parent="1">
          <mxGeometry x="190" y="-60" width="80" height="100" as="geometry" />
        </mxCell>
        <mxCell id="q8OtwesBFGutgxQmco77-21" value="QuellCode&lt;div&gt;&amp;lt; / &amp;gt;&lt;/div&gt;" style="shape=note;whiteSpace=wrap;html=1;backgroundOutline=1;darkOpacity=0.05;" vertex="1" parent="1">
          <mxGeometry x="200" y="-50" width="80" height="100" as="geometry" />
        </mxCell>
        <mxCell id="q8OtwesBFGutgxQmco77-45" style="edgeStyle=orthogonalEdgeStyle;rounded=0;orthogonalLoop=1;jettySize=auto;html=1;" edge="1" parent="1" source="q8OtwesBFGutgxQmco77-22" target="q8OtwesBFGutgxQmco77-44">
          <mxGeometry relative="1" as="geometry" />
        </mxCell>
        <mxCell id="q8OtwesBFGutgxQmco77-22" value="QuellCode&lt;div&gt;&amp;lt; / &amp;gt;&lt;/div&gt;" style="shape=note;whiteSpace=wrap;html=1;backgroundOutline=1;darkOpacity=0.05;" vertex="1" parent="1">
          <mxGeometry x="210" y="-40" width="80" height="100" as="geometry" />
        </mxCell>
        <mxCell id="q8OtwesBFGutgxQmco77-23" value="v 0.0.1&lt;div&gt;&lt;/div&gt;" style="shape=cylinder3;whiteSpace=wrap;html=1;boundedLbl=1;backgroundOutline=1;size=15;" vertex="1" parent="1">
          <mxGeometry x="332" y="400" width="60" height="80" as="geometry" />
        </mxCell>
        <mxCell id="q8OtwesBFGutgxQmco77-24" value="v 1.1.1&lt;div&gt;&lt;/div&gt;" style="shape=cylinder3;whiteSpace=wrap;html=1;boundedLbl=1;backgroundOutline=1;size=15;" vertex="1" parent="1">
          <mxGeometry x="332" y="340" width="60" height="80" as="geometry" />
        </mxCell>
        <mxCell id="q8OtwesBFGutgxQmco77-25" value="v 1.1.2&lt;div&gt;&lt;/div&gt;" style="shape=cylinder3;whiteSpace=wrap;html=1;boundedLbl=1;backgroundOutline=1;size=15;" vertex="1" parent="1">
          <mxGeometry x="332" y="275" width="60" height="80" as="geometry" />
        </mxCell>
        <mxCell id="q8OtwesBFGutgxQmco77-26" value="v 1.1.3&lt;div&gt;&lt;/div&gt;" style="shape=cylinder3;whiteSpace=wrap;html=1;boundedLbl=1;backgroundOutline=1;size=15;" vertex="1" parent="1">
          <mxGeometry x="332" y="210" width="60" height="80" as="geometry" />
        </mxCell>
        <mxCell id="q8OtwesBFGutgxQmco77-27" value="v 1.1.4&lt;div&gt;&lt;/div&gt;" style="shape=cylinder3;whiteSpace=wrap;html=1;boundedLbl=1;backgroundOutline=1;size=15;" vertex="1" parent="1">
          <mxGeometry x="332" y="150" width="60" height="80" as="geometry" />
        </mxCell>
        <mxCell id="q8OtwesBFGutgxQmco77-28" style="edgeStyle=orthogonalEdgeStyle;rounded=0;orthogonalLoop=1;jettySize=auto;html=1;entryX=0.033;entryY=0.588;entryDx=0;entryDy=0;entryPerimeter=0;" edge="1" parent="1" source="q8OtwesBFGutgxQmco77-22" target="q8OtwesBFGutgxQmco77-27">
          <mxGeometry relative="1" as="geometry">
            <Array as="points">
              <mxPoint x="312" y="10" />
              <mxPoint x="312" y="197" />
            </Array>
          </mxGeometry>
        </mxCell>
        <mxCell id="q8OtwesBFGutgxQmco77-29" value="" style="verticalLabelPosition=bottom;sketch=0;aspect=fixed;html=1;verticalAlign=top;strokeColor=none;align=center;outlineConnect=0;shape=mxgraph.citrix.laptop_2;" vertex="1" parent="1">
          <mxGeometry x="190" y="240" width="116" height="86.5" as="geometry" />
        </mxCell>
        <mxCell id="q8OtwesBFGutgxQmco77-31" value="DEV" style="shape=umlActor;verticalLabelPosition=bottom;verticalAlign=top;html=1;outlineConnect=0;" vertex="1" parent="1">
          <mxGeometry x="250" y="75" width="30" height="60" as="geometry" />
        </mxCell>
        <mxCell id="q8OtwesBFGutgxQmco77-32" value="" style="shape=flexArrow;endArrow=classic;html=1;rounded=0;entryX=0.855;entryY=0;entryDx=0;entryDy=4.35;entryPerimeter=0;" edge="1" parent="1" source="q8OtwesBFGutgxQmco77-29" target="q8OtwesBFGutgxQmco77-15">
          <mxGeometry width="50" height="50" relative="1" as="geometry">
            <mxPoint x="360" y="500" as="sourcePoint" />
            <mxPoint x="410" y="450" as="targetPoint" />
          </mxGeometry>
        </mxCell>
        <mxCell id="q8OtwesBFGutgxQmco77-33" value="BRANCH&lt;div&gt;(z.b. main&lt;/div&gt;&lt;div&gt;(deveolp oder featreu/bla-bla)&lt;/div&gt;" style="text;html=1;align=center;verticalAlign=middle;whiteSpace=wrap;rounded=0;" vertex="1" parent="1">
          <mxGeometry x="140" y="710" width="230" height="80" as="geometry" />
        </mxCell>
        <mxCell id="q8OtwesBFGutgxQmco77-34" value="" style="shape=flexArrow;endArrow=classic;html=1;rounded=0;exitX=1;exitY=1;exitDx=0;exitDy=-15;exitPerimeter=0;" edge="1" parent="1" source="q8OtwesBFGutgxQmco77-15">
          <mxGeometry width="50" height="50" relative="1" as="geometry">
            <mxPoint x="360" y="600" as="sourcePoint" />
            <mxPoint x="450" y="805" as="targetPoint" />
          </mxGeometry>
        </mxCell>
        <mxCell id="q8OtwesBFGutgxQmco77-40" value="PIPELINE" style="edgeLabel;html=1;align=center;verticalAlign=middle;resizable=0;points=[];" vertex="1" connectable="0" parent="q8OtwesBFGutgxQmco77-34">
          <mxGeometry x="0.3154" y="-2" relative="1" as="geometry">
            <mxPoint as="offset" />
          </mxGeometry>
        </mxCell>
        <mxCell id="q8OtwesBFGutgxQmco77-35" value="SERVER" style="rounded=1;whiteSpace=wrap;html=1;" vertex="1" parent="1">
          <mxGeometry x="550" y="550" width="120" height="60" as="geometry" />
        </mxCell>
        <mxCell id="q8OtwesBFGutgxQmco77-36" value="CLIENT (PC)" style="rounded=1;whiteSpace=wrap;html=1;" vertex="1" parent="1">
          <mxGeometry x="830" y="680" width="120" height="60" as="geometry" />
        </mxCell>
        <mxCell id="q8OtwesBFGutgxQmco77-38" value="REPO&lt;div&gt;(local)&lt;/div&gt;" style="text;html=1;align=center;verticalAlign=middle;whiteSpace=wrap;rounded=0;" vertex="1" parent="1">
          <mxGeometry x="-220" y="415" width="60" height="30" as="geometry" />
        </mxCell>
        <mxCell id="q8OtwesBFGutgxQmco77-41" style="edgeStyle=orthogonalEdgeStyle;rounded=0;orthogonalLoop=1;jettySize=auto;html=1;" edge="1" parent="1" source="q8OtwesBFGutgxQmco77-39" target="q8OtwesBFGutgxQmco77-35">
          <mxGeometry relative="1" as="geometry" />
        </mxCell>
        <mxCell id="q8OtwesBFGutgxQmco77-42" style="edgeStyle=orthogonalEdgeStyle;rounded=0;orthogonalLoop=1;jettySize=auto;html=1;entryX=0;entryY=0.5;entryDx=0;entryDy=0;" edge="1" parent="1" source="q8OtwesBFGutgxQmco77-39" target="q8OtwesBFGutgxQmco77-36">
          <mxGeometry relative="1" as="geometry" />
        </mxCell>
        <mxCell id="q8OtwesBFGutgxQmco77-39" value="SOFTWARE" style="shape=hexagon;perimeter=hexagonPerimeter2;whiteSpace=wrap;html=1;fixedSize=1;" vertex="1" parent="1">
          <mxGeometry x="310" y="670" width="120" height="80" as="geometry" />
        </mxCell>
        <mxCell id="q8OtwesBFGutgxQmco77-47" style="edgeStyle=orthogonalEdgeStyle;rounded=0;orthogonalLoop=1;jettySize=auto;html=1;entryX=0.5;entryY=0;entryDx=0;entryDy=0;" edge="1" parent="1" source="q8OtwesBFGutgxQmco77-44" target="q8OtwesBFGutgxQmco77-46">
          <mxGeometry relative="1" as="geometry" />
        </mxCell>
        <mxCell id="q8OtwesBFGutgxQmco77-44" value="Docker Image" style="ellipse;whiteSpace=wrap;html=1;aspect=fixed;" vertex="1" parent="1">
          <mxGeometry x="470" y="-30" width="80" height="80" as="geometry" />
        </mxCell>
        <mxCell id="q8OtwesBFGutgxQmco77-49" style="edgeStyle=orthogonalEdgeStyle;rounded=0;orthogonalLoop=1;jettySize=auto;html=1;" edge="1" parent="1" source="q8OtwesBFGutgxQmco77-46" target="q8OtwesBFGutgxQmco77-48">
          <mxGeometry relative="1" as="geometry" />
        </mxCell>
        <mxCell id="q8OtwesBFGutgxQmco77-46" value="Docker Container" style="ellipse;whiteSpace=wrap;html=1;" vertex="1" parent="1">
          <mxGeometry x="450" y="180" width="120" height="80" as="geometry" />
        </mxCell>
        <mxCell id="q8OtwesBFGutgxQmco77-48" value="ECS&amp;nbsp;" style="rounded=1;whiteSpace=wrap;html=1;" vertex="1" parent="1">
          <mxGeometry x="460" y="530" width="120" height="60" as="geometry" />
        </mxCell>
        <mxCell id="q8OtwesBFGutgxQmco77-51" value="ENV&amp;nbsp;&lt;br&gt;port&lt;div&gt;variable&amp;nbsp;&lt;/div&gt;&lt;div&gt;pass / user&lt;/div&gt;&lt;div&gt;&lt;br&gt;&lt;/div&gt;" style="shape=note;whiteSpace=wrap;html=1;backgroundOutline=1;darkOpacity=0.05;" vertex="1" parent="1">
          <mxGeometry x="520" y="60" width="80" height="100" as="geometry" />
        </mxCell>
        <mxCell id="q8OtwesBFGutgxQmco77-52" value="Secrets Manager" style="shape=cylinder3;whiteSpace=wrap;html=1;boundedLbl=1;backgroundOutline=1;size=15;" vertex="1" parent="1">
          <mxGeometry x="750" y="-90" width="60" height="80" as="geometry" />
        </mxCell>
        <mxCell id="q8OtwesBFGutgxQmco77-53" style="edgeStyle=orthogonalEdgeStyle;rounded=0;orthogonalLoop=1;jettySize=auto;html=1;entryX=0;entryY=0;entryDx=80;entryDy=65;entryPerimeter=0;" edge="1" parent="1" source="q8OtwesBFGutgxQmco77-52" target="q8OtwesBFGutgxQmco77-51">
          <mxGeometry relative="1" as="geometry" />
        </mxCell>
      </root>
    </mxGraphModel>
  </diagram>
</mxfile>
